#N canvas 5 101 1275 457 24;
#X obj 611 253 dac~;
#X floatatom 306 64 5 1 30 0 - - -;
#X floatatom 944 129 5 0 3 0 - - -;
#X obj 1151 365 hsl 50 30 0 100 0 0 empty empty empty -2 -8 0 10 -262144
-1 -1 0 1;
#X floatatom 1148 422 5 0 0 0 - - -;
#X text 1121 331 - Dry/Wet -;
#X obj 600 39 hsl 128 15 1 30 0 0 empty empty empty -2 -8 0 10 -262144
-1 -1 0 1;
#X floatatom 597 65 5 1 30 0 - - -;
#X floatatom 1026 129 5 0 3 0 - - -;
#X floatatom 1145 130 5 0 2 0 - - -;
#X text 1126 36 - Size -;
#X obj 944 66 knob 32 32 0 6 0 0 empty empty empty 0 -8 0 8 -262144
-1 -1 0 1;
#X obj 1026 65 knob 32 32 0 6 0 0 empty empty empty 0 -8 0 8 -262144
-1 -1 0 1;
#X obj 1145 66 knob 32 32 1.2 2.5 0 0 empty empty empty 0 -8 0 8 -262144
-1 -1 0 1;
#X obj 41 170 pvu~;
#X obj 42 209 vu 20 200 empty empty -1 -8 0 10 -66577 -1 1 0;
#X floatatom 367 127 5 0 0 0 - - -;
#X floatatom 659 130 5 0 0 0 - - -;
#X obj 367 89 /;
#X obj 659 90 /;
#X floatatom 611 357 5 1 5 0 - - -;
#X floatatom 941 420 5 0 5 0 - - -;
#X obj 941 358 knob 32 32 0 20 0 0 empty empty empty 0 -8 0 8 -262144
-1 -1 0 1;
#X obj 309 41 hsl 128 15 1 30 0 0 empty empty empty -2 -8 0 10 -262144
-1 -1 0 1;
#X obj 614 331 hsl 128 15 1 5 0 0 empty empty empty -2 -8 0 10 -262144
-1 -1 0 1;
#X floatatom 1019 419 5 0 5 0 - - -;
#X obj 1019 357 knob 32 32 0 20 0 0 empty empty empty 0 -8 0 8 -262144
-1 -1 0 1;
#X floatatom 310 357 5 1 5 0 - - -;
#X obj 313 328 hsl 128 15 1 5 0 0 empty empty empty -2 -8 0 10 -262144
-1 -1 0 1;
#X obj 538 227 VIRTUAL_TUBE_DELAY~;
#X msg 19 27 \; pd dsp 1;
#X msg 130 27 \; pd dsp 0;
#X obj 306 127 s~ LL;
#X obj 386 176 r~ LL;
#X obj 446 176 r~ LR;
#X obj 506 176 r~ GL;
#X obj 566 176 r~ GR;
#X obj 626 176 r~ S;
#X obj 1029 100 s~ GR;
#X obj 597 130 s~ LR;
#X obj 1148 101 s~ S;
#X obj 611 408 s~ LRL;
#X obj 684 382 /;
#X floatatom 684 409 5 0 0 0 - - -;
#X obj 675 176 r~ LRL;
#X obj 383 382 /;
#X floatatom 383 409 5 0 0 0 - - -;
#X obj 310 409 s~ LRR;
#X obj 746 176 r~ LRR;
#X obj 947 101 s~ GL;
#X obj 944 393 s~ GRL;
#X obj 817 176 r~ GRL;
#X obj 1022 392 s~ GRR;
#X obj 888 176 r~ GRR;
#X obj 1159 395 s~ DW;
#X obj 959 176 r~ DW;
#X obj 188 171 pvu~;
#X obj 189 210 vu 20 200 empty empty -1 -8 0 10 -66577 -1 1 0;
#X obj 538 253 s~ VUl;
#X obj 41 137 r~ VUl;
#X obj 188 138 r~ VUr;
#X obj 681 253 s~ VUr;
#X text 968 17 - Gain -;
#X text 907 303 - Gain Reflection -;
#X obj 80 482 spigot;
#X obj 113 460 tgl 15 0 empty empty allow_looping 17 7 0 10 -4033 -1
-1 0 1;
#X obj 53 509 t b b;
#X obj 53 472 bng 20 250 50 0 empty empty start 0 -6 1 10 -4033 -1
-1;
#X msg 53 536 1;
#X obj 41 572 readsf~;
#X obj 41 592 s~ IN;
#X msg 89 536 open ./Suzanne_Vega-Tom's_Dinner(Intro).wav;
#X msg 411 63 0.345;
#X msg 701 63 0.345;
#X msg 427 356 0.345;
#X msg 727 356 0.345;
#X text 16 107 Left Channel;
#X text 159 107 Right Channel;
#X text 937 331 Left;
#X text 1015 331 Right;
#X text 609 302 Distance from open end Left;
#X text 307 302 Distance from open end Right;
#X text 279 430 Time Delay Reflection Right;
#X text 587 431 Time Delay Reflection Left;
#X text 424 128 Time Delay Left;
#X text 716 132 Time Delay Right;
#X text 945 38 Left;
#X text 1022 38 Right;
#X obj 337 176 adc~;
#X text 594 16 Length tube Right;
#X text 304 17 Length tube Left;
#X connect 1 0 18 0;
#X connect 1 0 32 0;
#X connect 3 0 4 0;
#X connect 3 0 54 0;
#X connect 6 0 7 0;
#X connect 7 0 19 0;
#X connect 7 0 39 0;
#X connect 11 0 2 0;
#X connect 11 0 49 0;
#X connect 12 0 8 0;
#X connect 12 0 38 0;
#X connect 13 0 9 0;
#X connect 13 0 40 0;
#X connect 14 0 15 0;
#X connect 18 0 16 0;
#X connect 19 0 17 0;
#X connect 20 0 41 0;
#X connect 20 0 42 0;
#X connect 22 0 21 0;
#X connect 22 0 50 0;
#X connect 23 0 1 0;
#X connect 24 0 20 0;
#X connect 26 0 25 0;
#X connect 26 0 52 0;
#X connect 27 0 45 0;
#X connect 27 0 47 0;
#X connect 28 0 27 0;
#X connect 29 0 0 0;
#X connect 29 0 58 0;
#X connect 29 1 0 1;
#X connect 29 1 61 0;
#X connect 33 0 29 1;
#X connect 34 0 29 2;
#X connect 35 0 29 3;
#X connect 36 0 29 4;
#X connect 37 0 29 5;
#X connect 42 0 43 0;
#X connect 44 0 29 6;
#X connect 45 0 46 0;
#X connect 48 0 29 7;
#X connect 51 0 29 8;
#X connect 53 0 29 9;
#X connect 55 0 29 10;
#X connect 56 0 57 0;
#X connect 59 0 14 0;
#X connect 60 0 56 0;
#X connect 64 0 66 0;
#X connect 65 0 64 1;
#X connect 66 0 68 0;
#X connect 66 1 71 0;
#X connect 67 0 66 0;
#X connect 68 0 69 0;
#X connect 69 0 70 0;
#X connect 69 1 64 0;
#X connect 71 0 69 0;
#X connect 72 0 18 1;
#X connect 73 0 19 1;
#X connect 74 0 45 1;
#X connect 75 0 42 1;
#X connect 88 0 29 0;
