#N canvas 282 52 882 485 10;
#X obj 491 252 dac~;
#X floatatom 225 73 5 1 30 0 - - -;
#X floatatom 685 115 5 0 3 0 - - -;
#X obj 805 365 hsl 50 30 0 100 0 0 empty empty empty -2 -8 0 10 -262144
-1 -1 4900 1;
#X floatatom 802 420 5 0 0 0 - - -;
#X text 795 331 - Dry/Wet -;
#X obj 457 39 hsl 128 15 1 30 0 0 empty empty empty -2 -8 0 10 -262144
-1 -1 7000 1;
#X floatatom 454 74 5 1 30 0 - - -;
#X floatatom 767 115 5 0 3 0 - - -;
#X floatatom 800 308 5 0 2 0 - - -;
#X text 787 220 - Size -;
#X obj 685 52 knob 32 32 0 6 0 0 empty empty empty 0 -8 0 8 -262144
-1 -1 3100 1;
#X obj 767 51 knob 32 32 0 6 0 0 empty empty empty 0 -8 0 8 -262144
-1 -1 3100 1;
#X obj 800 244 knob 32 32 1.2 2.5 0 0 empty empty empty 0 -8 0 8 -262144
-1 -1 3100 1;
#X obj 41 197 pvu~;
#X obj 42 236 vu 20 200 empty empty -1 -8 0 10 -66577 -1 1 0;
#X floatatom 270 127 5 0 0 0 - - -;
#X floatatom 510 131 5 0 0 0 - - -;
#X msg 546 73 0.3438;
#X obj 270 89 /;
#X obj 510 90 /;
#X text 312 128 - Time Delay Left -;
#X text 548 132 - Time Delay Right -;
#X text 238 21 - Length tube Left -;
#X text 462 19 - Length tube Right -;
#X floatatom 664 251 5 0 1 0 - - -;
#X floatatom 455 366 5 1 5 0 - - -;
#X floatatom 643 420 5 0 5 0 - - -;
#X obj 643 357 knob 32 32 0 20 0 0 empty empty empty 0 -8 0 8 -262144
-1 -1 3100 1;
#X obj 228 41 hsl 128 15 1 30 0 0 empty empty empty -2 -8 0 10 -262144
-1 -1 5900 1;
#X obj 458 331 hsl 128 15 1 5 0 0 empty empty empty -2 -8 0 10 -262144
-1 -1 12700 1;
#X floatatom 721 418 5 0 5 0 - - -;
#X obj 721 354 knob 32 32 0 20 0 0 empty empty empty 0 -8 0 8 -262144
-1 -1 3100 1;
#X floatatom 232 366 5 1 5 0 - - -;
#X obj 235 328 hsl 128 15 1 5 0 0 empty empty empty -2 -8 0 10 -262144
-1 -1 12700 1;
#X obj 448 227 VIRTUAL_TUBE_DELAY~;
#X msg 35 27 \; pd dsp 1;
#X msg 132 26 \; pd dsp 0;
#X obj 225 128 s~ LL;
#X obj 268 176 r~ LL;
#X obj 316 176 r~ LR;
#X obj 367 176 r~ GL;
#X obj 419 176 r~ GR;
#X obj 471 176 r~ S;
#X obj 770 86 s~ GR;
#X obj 454 130 s~ LR;
#X obj 803 279 s~ S;
#X obj 664 278 s~ R;
#X obj 515 176 r~ R;
#X obj 455 408 s~ LRL;
#X msg 544 365 0.3438;
#X obj 511 382 /;
#X floatatom 511 409 5 0 0 0 - - -;
#X text 428 306 - Distance from open end Left -;
#X text 203 306 - Distance from open end Right -;
#X obj 556 176 r~ LRL;
#X msg 321 365 0.3438;
#X obj 288 382 /;
#X floatatom 288 409 5 0 0 0 - - -;
#X obj 232 409 s~ LRR;
#X obj 608 176 r~ LRR;
#X obj 688 87 s~ GL;
#X obj 646 392 s~ GRL;
#X obj 660 176 r~ GRL;
#X obj 724 389 s~ GRR;
#X obj 712 176 r~ GRR;
#X obj 813 395 s~ DW;
#X obj 764 176 r~ DW;
#X text 647 220 - Add Reflection -;
#X msg 312 72 0.3438;
#X text 718 267 1 on;
#X text 718 247 0 off;
#X text 429 432 - Time Delay Reflection Left -;
#X text 11 134 - Left Channel -;
#X obj 133 197 pvu~;
#X obj 134 236 vu 20 200 empty empty -1 -8 0 10 -66577 -1 1 0;
#X text 105 134 - Right Channel -;
#X obj 448 271 s~ VUl;
#X obj 41 164 r~ VUl;
#X obj 133 164 r~ VUr;
#X obj 559 270 s~ VUr;
#X obj 217 176 r~ IN;
#X text 204 430 - Time Delay Reflection Right -;
#X text 719 8 - Gain -;
#X text 674 27 - Left -;
#X text 640 306 - Gain Reflection -;
#X text 631 330 - Left -;
#X text 756 27 - Right -;
#X text 708 330 - Right -;
#X obj 80 482 spigot;
#X obj 113 460 tgl 15 0 empty empty allow_looping 17 7 0 10 -4033 -1
-1 1 1;
#X obj 53 509 t b b;
#X obj 53 472 bng 20 250 50 0 empty empty start 0 -6 1 10 -4033 -1
-1;
#X msg 53 536 1;
#X obj 41 572 readsf~;
#X obj 41 592 s~ IN;
#X msg 89 536 open ./Suzanne_Vega-Tom's_Dinner(Intro).wav;
#X connect 1 0 19 0;
#X connect 1 0 38 0;
#X connect 3 0 4 0;
#X connect 3 0 66 0;
#X connect 6 0 7 0;
#X connect 7 0 20 0;
#X connect 7 0 45 0;
#X connect 11 0 2 0;
#X connect 11 0 61 0;
#X connect 12 0 8 0;
#X connect 12 0 44 0;
#X connect 13 0 9 0;
#X connect 13 0 46 0;
#X connect 14 0 15 0;
#X connect 18 0 20 1;
#X connect 19 0 16 0;
#X connect 20 0 17 0;
#X connect 25 0 47 0;
#X connect 26 0 49 0;
#X connect 26 0 51 0;
#X connect 28 0 27 0;
#X connect 28 0 62 0;
#X connect 29 0 1 0;
#X connect 30 0 26 0;
#X connect 32 0 31 0;
#X connect 32 0 64 0;
#X connect 33 0 57 0;
#X connect 33 0 59 0;
#X connect 34 0 33 0;
#X connect 35 0 0 0;
#X connect 35 0 77 0;
#X connect 35 1 0 1;
#X connect 35 1 80 0;
#X connect 39 0 35 1;
#X connect 40 0 35 2;
#X connect 41 0 35 3;
#X connect 42 0 35 4;
#X connect 43 0 35 5;
#X connect 48 0 35 6;
#X connect 50 0 51 1;
#X connect 51 0 52 0;
#X connect 55 0 35 7;
#X connect 56 0 57 1;
#X connect 57 0 58 0;
#X connect 60 0 35 8;
#X connect 63 0 35 9;
#X connect 65 0 35 10;
#X connect 67 0 35 11;
#X connect 69 0 19 1;
#X connect 74 0 75 0;
#X connect 78 0 14 0;
#X connect 79 0 74 0;
#X connect 81 0 35 0;
#X connect 89 0 91 0;
#X connect 90 0 89 1;
#X connect 91 0 93 0;
#X connect 91 1 96 0;
#X connect 92 0 91 0;
#X connect 93 0 94 0;
#X connect 94 0 95 0;
#X connect 94 1 89 0;
#X connect 96 0 94 0;
